<svg width="506" height="690" viewBox="0 0 506 690" fill="none" xmlns="http://www.w3.org/2000/svg">
<g clip-path="url(#clip0_1925_9189)">
<mask id="mask0_1925_9189" style="mask-type:alpha" maskUnits="userSpaceOnUse" x="2" y="0" width="504" height="689">
<path d="M2.77441 0.5V688.5H504.774V0.5H2.77441Z" fill="#D9D9D9" stroke="#726863"/>
</mask>
<g mask="url(#mask0_1925_9189)">
<g opacity="0.4">
<mask id="mask1_1925_9189" style="mask-type:alpha" maskUnits="userSpaceOnUse" x="0" y="-179" width="360" height="911">
<g opacity="0.4">
<path d="M358.774 -178.5V731.5H0.774414V-178.5H358.774Z" fill="url(#paint0_radial_1925_9189)" stroke="#726863"/>
</g>
</mask>
<g mask="url(#mask1_1925_9189)">
<path d="M325.772 147.002L325.772 1132.35" stroke="#726863"/>
<path d="M277.772 147.002L277.772 1132.35" stroke="#726863"/>
<path d="M229.772 147.002L229.772 1132.35" stroke="#726863"/>
<path d="M181.772 147.002L181.772 1132.35" stroke="#726863"/>
<path d="M133.772 147.002L133.772 1132.35" stroke="#726863"/>
<path d="M85.7734 147.002L85.7735 1132.35" stroke="#726863"/>
<path d="M37.7734 147.002L37.7735 1132.35" stroke="#726863"/>
<path d="M-159.07 191.502L826.279 191.502" stroke="#726863"/>
<path d="M-159.07 239.502L826.279 239.502" stroke="#726863"/>
<path d="M-159.07 287.502L826.279 287.502" stroke="#726863"/>
<path d="M-159.07 335.502L826.279 335.502" stroke="#726863"/>
<path d="M-159.07 383.502L826.279 383.502" stroke="#726863"/>
<path d="M-159.07 431.502L826.279 431.502" stroke="#726863"/>
<path d="M-159.07 479.502L826.279 479.502" stroke="#726863"/>
<path d="M-159.07 527.502L826.279 527.502" stroke="#726863"/>
<path d="M-159.07 575.502L826.279 575.502" stroke="#726863"/>
<path d="M-159.07 623.502L826.279 623.502" stroke="#726863"/>
<path d="M-159.07 671.502L826.279 671.502" stroke="#726863"/>
<path d="M325.774 -428.998L325.774 556.351" stroke="#726863"/>
<path d="M277.774 -428.998L277.774 556.351" stroke="#726863"/>
<path d="M229.774 -428.998L229.774 556.351" stroke="#726863"/>
<path d="M181.774 -428.998L181.774 556.351" stroke="#726863"/>
<path d="M133.774 -428.998L133.774 556.351" stroke="#726863"/>
<path d="M85.7754 -428.998L85.7754 556.351" stroke="#726863"/>
<path d="M37.7754 -428.998L37.7754 556.351" stroke="#726863"/>
<path d="M-159.07 -0.498047L826.279 -0.498107" stroke="#726863"/>
<path d="M-159.07 47.502L826.279 47.5019" stroke="#726863"/>
<path d="M-159.07 95.502L826.279 95.5019" stroke="#726863"/>
<path d="M-159.07 143.502L826.279 143.502" stroke="#726863"/>
<path d="M-159.07 191.502L826.279 191.502" stroke="#726863"/>
</g>
</g>
</g>
<path d="M-136.327 461.995L-102.006 427.673L-35.3046 360.001L37.5611 287.135H133.803" stroke="#F74239" stroke-width="4" stroke-linecap="round"/>
<path opacity="0.1" d="M174.482 279.814L141.124 246.456C137.219 242.551 130.887 242.551 126.982 246.456L93.1236 280.314C89.2184 284.219 89.2184 290.551 93.1236 294.456L126.482 327.814C130.387 331.719 136.719 331.719 140.624 327.814L174.482 293.956C178.387 290.051 178.387 283.719 174.482 279.814Z" fill="#F74239"/>
<path d="M149.566 290.878L137.545 302.898C135.202 305.242 131.403 305.242 129.06 302.898L117.039 290.878C114.696 288.535 114.696 284.736 117.039 282.392L129.06 270.372C131.403 268.028 135.202 268.028 137.545 270.372L149.566 282.392C151.909 284.736 151.909 288.535 149.566 290.878Z" fill="#F74239" fill-opacity="0.12"/>
<path d="M145.324 288.049L134.717 298.656C133.936 299.437 132.67 299.437 131.889 298.656L121.282 288.049C120.501 287.268 120.501 286.002 121.282 285.221L131.889 274.614C132.67 273.833 133.936 273.833 134.717 274.614L145.324 285.221C146.105 286.002 146.105 287.268 145.324 288.049Z" fill="white" stroke="#F74239" stroke-width="4"/>
<path d="M-9.78809 431.995H85.8032" stroke="#F74239" stroke-width="4" stroke-linecap="round" stroke-dasharray="4 8"/>
<path d="M85.8027 421.995V441.995" stroke="#F74239" stroke-width="4" stroke-linecap="round"/>
</g>
<defs>
<radialGradient id="paint0_radial_1925_9189" cx="0" cy="0" r="1" gradientUnits="userSpaceOnUse" gradientTransform="translate(129.115 324.829) rotate(90.0242) scale(346.76 136.649)">
<stop stop-color="white"/>
<stop offset="1" stop-opacity="0"/>
</radialGradient>
<clipPath id="clip0_1925_9189">
<rect width="506" height="690" fill="white"/>
</clipPath>
</defs>
</svg>
